<svg width="101" height="20" viewBox="0 0 101 20" fill="none" xmlns="http://www.w3.org/2000/svg">
<g clip-path="url(#clip0_94552_2064)">
<path d="M1.26449 17.9531C0.36955 16.5828 -0.0747041 14.9399 1.02073e-05 13.2769V6.34621C-0.108365 4.66535 0.308071 2.99332 1.18546 1.58655C2.05478 0.501017 3.39829 0 5.37403 0C7.34978 0 8.61425 0.501017 9.40455 1.41955C10.2626 2.58293 10.6846 4.03967 10.59 5.51118V7.18124H6.71754V5.26067C6.74881 4.69265 6.66808 4.12395 6.48045 3.59062C6.38016 3.37534 6.2212 3.19668 6.02403 3.07764C5.82686 2.95859 5.60049 2.90459 5.37403 2.9226C4.82082 2.9226 4.42568 3.0896 4.26762 3.50712C4.08883 4.10042 4.00862 4.72195 4.03053 5.34418V14.279C3.98879 14.8827 4.0978 15.4873 4.34665 16.0325C4.5047 16.45 4.89985 16.617 5.45306 16.617C6.00627 16.617 6.32239 16.45 6.48045 16.0325C6.66013 15.4682 6.74049 14.8739 6.71754 14.279V12.2749H10.59V13.945C10.6704 15.4405 10.2508 16.9183 9.40455 18.1201C8.61425 19.1221 7.27075 19.6231 5.37403 19.6231C3.47732 19.5396 2.05478 19.0386 1.26449 17.9531Z" fill="#111111"/>
<path d="M15.2527 0.251526H19.7574L23.0767 19.2901H19.4413L18.8091 15.282H16.2011L15.5689 19.2901H11.8545L15.2527 0.251526ZM18.493 12.7769L17.5446 5.34519L16.5962 12.7769H18.493Z" fill="#111111"/>
<path d="M25.8427 3.42463H23.1557V0.251526H32.5603V3.34113H29.8732V19.2901H25.8427V3.42463Z" fill="#111111"/>
<path d="M39.7519 0.251526H46.7066V2.25559H42.2019V8.5183H45.8372V10.4389H42.2019V17.4531H46.7066V19.3737H39.6729V0.251526H39.7519Z" fill="#111111"/>
<path d="M48.7613 0.251526H50.5L55.6369 12.8604V0.251526H57.6917V19.2901H56.1111L50.8951 6.26372V19.2901H48.7613V0.251526Z" fill="#111111"/>
<path d="M60.0626 0.251526H67.0172V2.25559H62.5125V8.5183H66.1479V10.4389H62.5125V17.4531H67.0172V19.3737H60.0626V0.251526Z" fill="#111111"/>
<path d="M69.072 0.251714H72.7074C74.1375 0.147337 75.5587 0.559553 76.7379 1.42075C77.6072 2.17228 78.0024 3.50832 78.0024 5.26188C78.0024 7.68346 77.2911 9.18651 75.7895 9.68753L78.3185 19.2068H75.8686L73.4977 10.272H71.5219V19.2068H68.993V0.251714H69.072ZM72.5493 8.43498C73.364 8.50592 74.1761 8.26921 74.8412 7.76696C75.3153 7.34945 75.5524 6.51442 75.5524 5.26188C75.5743 4.63966 75.4941 4.01812 75.3153 3.42482C75.1375 2.99908 74.832 2.64698 74.446 2.42279C73.9017 2.16071 73.3042 2.04592 72.7074 2.08877H71.6009V8.35148H72.5493V8.43498Z" fill="#111111"/>
<path d="M81.1635 17.8708C80.342 16.4108 79.9564 14.7229 80.0571 13.0276V6.68143C80.0376 5.47134 80.1705 4.26389 80.4523 3.09081C80.7167 2.21422 81.2437 1.45223 81.9538 0.919741C82.8362 0.367851 83.8542 0.106216 84.8779 0.168217C86.5375 0.168217 87.723 0.58573 88.4343 1.50426C89.2525 2.71713 89.6438 4.19396 89.5407 5.6794V6.34742H87.1698V5.7629C87.1734 5.06356 87.1205 4.36518 87.0117 3.67533C86.9451 3.2394 86.7178 2.8491 86.3795 2.5898C85.9353 2.28173 85.4081 2.13514 84.8779 2.17228C84.3113 2.13392 83.7504 2.3117 83.2973 2.6733C83.1114 2.83881 82.9595 3.04268 82.8508 3.27241C82.7421 3.50215 82.6789 3.75291 82.6651 4.00934C82.5609 4.75585 82.5081 5.50934 82.507 6.26392V13.3617C82.4488 14.443 82.6105 15.525 82.9812 16.5348C83.2973 17.2028 83.9296 17.4533 84.8779 17.4533C85.2524 17.5026 85.6323 17.4338 85.9698 17.2555C86.3073 17.0772 86.5873 16.7973 86.7746 16.4513C87.1922 15.3953 87.3812 14.2542 87.3278 13.1111V11.7751H85.036V9.85454H89.6197V19.2903H88.0391L87.802 17.1193C87.5948 17.8469 87.1634 18.4804 86.5763 18.9192C85.9892 19.358 85.2801 19.5768 84.5618 19.5409C83.9088 19.5814 83.2565 19.4501 82.6634 19.1586C82.0702 18.8671 81.5549 18.4246 81.1635 17.8708Z" fill="#111111"/>
<path d="M94.6776 12.6113L90.8052 0.336443H93.176L95.9421 9.52174L98.6291 0.336443H101L97.1275 12.6113V19.2916H94.7566V12.6113H94.6776Z" fill="#111111"/>
</g>
<defs>
<clipPath id="clip0_94552_2064">
<rect width="101" height="19.5396" fill="white"/>
</clipPath>
</defs>
</svg>
